<?xml version="1.0" encoding="UTF-8"?>
<svg xmlns="http://www.w3.org/2000/svg" xmlns:xlink="http://www.w3.org/1999/xlink" width="166px" height="42px" viewBox="0 0 166 42" version="1.1">
<g id="surface1">
<path style=" stroke:none;fill-rule:evenodd;fill:rgb(76.862746%,4.705882%,4.705882%);fill-opacity:1;" d="M 29.109375 1.417969 C 26.777344 1.90625 25.003906 3.039062 23.898438 4.757812 C 23.261719 5.742188 22.800781 7.242188 22.636719 8.847656 C 22.546875 9.734375 22.515625 13.894531 22.550781 20.417969 L 22.605469 30.601562 L 22.839844 31.535156 C 23.558594 34.386719 25.175781 36.191406 27.683594 36.9375 C 28.695312 37.238281 29.929688 37.300781 31.523438 37.128906 C 33.660156 36.894531 34.183594 36.765625 35.472656 36.144531 C 38.328125 34.769531 39.914062 32.46875 40.367188 29.046875 C 40.46875 28.289062 40.5 24.714844 40.46875 17.867188 L 40.425781 7.800781 L 40.191406 7 C 39.542969 4.773438 38.320312 3.210938 36.542969 2.332031 C 34.863281 1.5 33.992188 1.332031 31.515625 1.347656 C 30.339844 1.355469 29.257812 1.390625 29.109375 1.417969 M 1.464844 1.699219 C 1.464844 1.71875 1.464844 10.417969 1.464844 21.035156 L 1.464844 40.332031 L 1.699219 40.304688 C 1.828125 40.289062 3.222656 40.09375 4.796875 39.875 C 6.371094 39.65625 8.589844 39.351562 9.726562 39.207031 C 11.992188 38.910156 13.164062 38.679688 13.269531 38.511719 C 13.308594 38.449219 13.453125 38.398438 13.59375 38.398438 C 14.136719 38.398438 16.046875 37.242188 16.949219 36.363281 C 18.164062 35.183594 18.976562 33.613281 19.371094 31.703125 C 19.671875 30.253906 19.671875 24.6875 19.375 23.226562 C 18.945312 21.140625 17.765625 19.511719 16.160156 18.792969 L 15.398438 18.449219 L 15.992188 18.042969 C 17.375 17.089844 18.242188 15.832031 18.726562 14.066406 C 19.0625 12.847656 19.140625 9.210938 18.863281 7.601562 C 18.347656 4.574219 16.757812 2.816406 13.765625 1.964844 L 12.722656 1.667969 L 7.09375 1.667969 C 4 1.667969 1.464844 1.683594 1.464844 1.699219 M 44.097656 18.683594 L 44.097656 35.765625 L 44.929688 35.683594 C 45.992188 35.578125 54.515625 35.089844 57.488281 34.964844 L 59.753906 34.867188 L 59.789062 32.472656 C 59.808594 31.152344 59.800781 30.011719 59.773438 29.9375 C 59.71875 29.800781 59.121094 29.8125 52.65625 30.070312 L 50.09375 30.171875 L 50.09375 1.601562 L 44.097656 1.601562 L 44.097656 18.683594 M 62.214844 18.203125 L 62.214844 34.808594 L 63.382812 34.734375 C 64.621094 34.652344 74.679688 34.398438 76.636719 34.398438 L 77.804688 34.398438 L 77.804688 29.398438 L 76.640625 29.433594 C 75.996094 29.449219 73.839844 29.480469 71.84375 29.5 L 68.210938 29.535156 L 68.210938 1.601562 L 62.214844 1.601562 L 62.214844 18.203125 M 75.070312 1.832031 C 75.265625 2.320312 79.359375 14.121094 80.882812 18.585938 L 82.46875 23.234375 L 82.46875 34.398438 L 88.460938 34.398438 L 88.460938 23.160156 L 89.945312 18.8125 C 90.761719 16.421875 92.414062 11.648438 93.617188 8.199219 C 94.816406 4.753906 95.8125 1.875 95.828125 1.800781 C 95.847656 1.714844 94.8125 1.652344 92.988281 1.628906 L 90.117188 1.59375 L 89.976562 2.097656 C 89.128906 5.152344 85.726562 15.96875 85.65625 15.839844 C 85.605469 15.746094 84.957031 13.65625 84.21875 11.199219 C 83.476562 8.742188 82.519531 5.59375 82.09375 4.199219 L 81.320312 1.667969 L 78.148438 1.632812 L 74.976562 1.59375 L 75.070312 1.832031 M 98.054688 18.058594 L 98.054688 34.515625 L 98.621094 34.585938 C 98.933594 34.625 100.28125 34.683594 101.617188 34.714844 L 104.046875 34.773438 L 104.117188 20.773438 L 106.316406 20.789062 C 107.523438 20.792969 109.21875 20.839844 110.078125 20.886719 L 111.644531 20.972656 L 111.644531 16 L 108.746094 16 C 107.152344 16 105.441406 15.960938 104.949219 15.914062 L 104.046875 15.828125 L 104.082031 11.09375 L 104.117188 6.363281 L 113.640625 6.417969 L 113.640625 1.601562 L 98.054688 1.601562 L 98.054688 18.058594 M 116.40625 18.46875 L 116.375 35.332031 L 116.773438 35.394531 C 116.992188 35.425781 118.3125 35.519531 119.703125 35.601562 C 122.457031 35.757812 130.199219 36.347656 131.328125 36.480469 L 132.027344 36.5625 L 132.027344 31.234375 L 131.261719 31.152344 C 130.839844 31.109375 128.996094 30.980469 127.164062 30.867188 C 125.332031 30.753906 123.519531 30.628906 123.132812 30.585938 L 122.433594 30.515625 L 122.433594 1.601562 L 116.441406 1.601562 L 116.40625 18.46875 M 134.425781 19.171875 L 134.425781 36.746094 L 136.921875 36.980469 C 138.296875 37.113281 139.644531 37.25 139.921875 37.292969 L 140.421875 37.367188 L 140.421875 1.601562 L 134.425781 1.601562 L 134.425781 19.171875 M 143.730469 1.664062 C 143.691406 1.703125 144.101562 2.949219 144.644531 4.433594 C 145.851562 7.75 149.234375 17.398438 149.542969 18.398438 L 149.765625 19.132812 L 147.089844 26.667969 C 143.175781 37.675781 143.226562 37.519531 143.28125 37.574219 C 143.34375 37.636719 148.84375 38.285156 148.875 38.234375 C 148.890625 38.214844 149.964844 34.96875 151.265625 31.019531 C 152.566406 27.070312 153.648438 23.863281 153.675781 23.886719 C 153.746094 23.960938 156.160156 31.839844 157.3125 35.765625 C 157.886719 37.726562 158.394531 39.367188 158.4375 39.410156 C 158.535156 39.503906 164.578125 40.390625 164.65625 40.320312 C 164.761719 40.222656 162.101562 31.574219 159.765625 24.40625 L 158.179688 19.546875 L 159.171875 16.671875 C 159.71875 15.09375 161.054688 11.191406 162.148438 8 C 163.238281 4.808594 164.191406 2.09375 164.265625 1.964844 L 164.402344 1.734375 L 162.003906 1.707031 C 160.683594 1.691406 159.410156 1.679688 159.171875 1.675781 L 158.738281 1.667969 L 156.539062 8.15625 C 155.332031 11.726562 154.3125 14.675781 154.277344 14.710938 C 154.238281 14.746094 153.238281 11.824219 152.054688 8.21875 L 149.898438 1.667969 L 146.847656 1.632812 C 145.171875 1.613281 143.769531 1.625 143.730469 1.664062 M 30.773438 6.386719 C 29.742188 6.605469 29.085938 7.164062 28.75 8.109375 C 28.492188 8.835938 28.496094 29.304688 28.753906 30.035156 C 29.128906 31.089844 30 31.734375 31.050781 31.734375 C 32.539062 31.734375 33.5625 31.167969 34.121094 30.039062 L 34.4375 29.398438 L 34.476562 19.199219 C 34.503906 12.105469 34.472656 8.816406 34.371094 8.398438 C 34.171875 7.585938 33.6875 6.882812 33.152344 6.632812 C 32.605469 6.375 31.402344 6.25 30.773438 6.386719 M 7.425781 7.007812 C 7.324219 7.113281 7.28125 16.445312 7.382812 16.546875 C 7.511719 16.675781 10.117188 16.417969 10.828125 16.207031 C 11.773438 15.925781 12.265625 15.523438 12.675781 14.699219 L 12.988281 14.066406 L 12.988281 8.992188 L 12.648438 8.328125 C 12.40625 7.855469 12.144531 7.574219 11.734375 7.347656 L 11.160156 7.027344 L 9.34375 6.964844 C 8.34375 6.929688 7.480469 6.949219 7.425781 7.007812 M 8.328125 21.992188 L 7.394531 22.066406 L 7.324219 33.746094 L 7.757812 33.675781 C 7.996094 33.636719 8.734375 33.542969 9.394531 33.46875 C 12.730469 33.09375 13.355469 32.511719 13.625 29.535156 C 13.730469 28.382812 13.730469 27.335938 13.636719 25.96875 C 13.476562 23.703125 13.214844 22.984375 12.324219 22.367188 L 11.789062 21.996094 L 10.523438 21.957031 C 9.828125 21.9375 8.839844 21.953125 8.328125 21.992188 "/>
</g>
</svg>
